<svg xmlns="http://www.w3.org/2000/svg" width="50.487" height="50.525" viewBox="0 0 1336 1337" shape-rendering="geometricPrecision" text-rendering="geometricPrecision" image-rendering="optimizeQuality" fill-rule="evenodd" clip-rule="evenodd"><defs><style>.fil0{fill:#bc8c4a;fill-rule:nonzero}</style></defs><path class="fil0" d="M870 809c-25 28-56 51-90 68-39 20-83 31-129 31-38 0-75-8-110-22-30-12-58-30-84-52-19 12-41 21-63 27-26 8-54 13-82 13h-5v-1h-19l-1-1h-9l-1-1h-6l-1-1h-6v-1h-5l-1-1h-4l-1-1h-1v430h816V893h-9c-40 0-78-9-112-27-28-14-54-33-77-57zm-658 47c-46-18-87-46-121-84C35 710 0 625 0 530c0-94 35-180 91-242s135-101 221-101c17 0 33 2 49 4 10 2 20 4 30 7 27-56 68-105 119-139C565 22 631 0 701 0c84 0 161 30 220 80 56 47 96 111 114 184h2c7-1 15-1 22-1 77 0 147 36 197 93 49 57 80 136 80 222 0 87-31 165-80 222-40 45-91 77-148 88v449H212V856zm550-14c36-18 67-44 93-76l15-20 16 20c22 27 49 50 79 65 29 14 61 22 94 22h3c64-1 121-31 163-79 44-50 71-119 71-196 0-76-27-146-71-196-42-49-101-79-166-79-6 0-12 0-18 1-7 0-13 1-19 2l-19 4-4-20c-13-72-50-135-104-179-52-44-120-71-194-71-62 0-120 19-169 52s-88 82-111 138l-7 18-18-6c-13-5-27-9-42-11-13-3-27-4-42-4-75 0-143 34-192 88-49 55-80 131-80 215 0 85 31 161 80 216 43 46 99 78 161 86h8l1 1h17l1 1h4c25 0 48-4 71-11s46-17 66-31l13-8 12 11c24 23 52 42 83 54 29 12 61 19 94 19 40 0 78-9 111-26z" id="Слой_x0020_1"/></svg>