<svg xmlns="http://www.w3.org/2000/svg" width="52.01" height="50.865" viewBox="0 0 1376 1346" shape-rendering="geometricPrecision" text-rendering="geometricPrecision" image-rendering="optimizeQuality" fill-rule="evenodd" clip-rule="evenodd"><defs><style>.fil0{fill:#fefefe;fill-rule:nonzero}</style></defs><path class="fil0" d="M221 178h189c3-47 24-90 56-122 34-35 82-56 135-56h174c53 0 101 21 135 56 32 32 53 75 56 122h189c61 0 116 25 156 65s65 95 65 156v725c0 61-25 117-65 157s-95 65-156 65H221c-60 0-116-25-156-65s-65-96-65-157V399c0-61 25-116 65-156s96-65 156-65zm869 40v1088h65c50 0 95-21 128-53 33-33 53-79 53-129V399c0-50-20-95-53-128s-78-53-128-53h-65zM286 1306V218h-65c-49 0-95 20-128 53s-53 78-53 128v725c0 50 20 96 53 129 33 32 79 53 128 53h65zm40-1088v1088h724V218H326zm124-40h476c-3-36-19-69-44-94-27-27-65-44-107-44H601c-42 0-80 17-107 44-25 25-41 58-44 94z" id="Слой_x0020_1"/></svg>