<svg xmlns="http://www.w3.org/2000/svg" width="75.65" height="56.081" viewBox="0 0 2002 1484" shape-rendering="geometricPrecision" text-rendering="geometricPrecision" image-rendering="optimizeQuality" fill-rule="evenodd" clip-rule="evenodd"><defs><style>.fil0{fill:#bc8c4a}</style></defs><path class="fil0" d="M976 591c29-13 87-71 85-119-32 6-36 16-52 42-10 16-30 59-33 77zM237 404C279 280 331 7 576 41c164 23 130 286-7 303-60 8-98-23-110-68 12-9 0 0 16-10 78-44 116-128 88-152-104-50-181 218-169 298 39 0 129-3 160 11 50 23 34 67 35 121 23-46 41-84 68-127 28-44 49-89 120-77 33 37 25 61 23 121-2 72-5 72 40 107 37-48 28-77 104-157 212-225 319 191 11 234-8 41-42 127-13 167 61 44 169-147 199-204 33-65 106-261 153-263 36-2 80 114 87 150 24-12 34-21 50-35 53-46 91-60 102-107 14-62 24-183 43-233 33-18 85-12 110 18 23 29 10 85 3 126-12 68-47 196-48 258 18-24 36-64 52-92 46-78 122-138 160-59 21 43-40 277-53 351-6 38-10 93-6 132 5 50 16 61 46 92-31 302-420 237-686 200-122-17-547-133-593-1-30 89 64 119 95 132-48 108-388 57-320-197 45-170 276-161 464-133 164 24 350 78 513 118 121 29 431 88 490-67-136 59-171-45-158-173 7-76 53-285 54-300-67 107-115 253-127 382-225-5-86-233-65-439-20 10-85 69-101 85 5 86 55 183 2 268-33 53-134 109-225 81-105-32-31-162 5-208 64-80 135-106 68-177-39 56-67 133-112 186-50 59-82 130-133 168-67 52-160 43-201-27-44-75 4-180 19-248-35 16-59 57-119 33-53-20-47-64-49-117-70 72-115 289-134 387-20 12-47 6-70-1-23-8-35-17-43-34-41-87 47-300 46-395l-84 5c-16 136-38 299-79 421-76 228-237 169-256 64 60-25 60-18 89-76 41-82 80-323 92-417l-127-5c2-77 88-37 142-57zm-30-38c-86 22-138-5-161 105-10 53 16 55 42 88 25 32 32 44 69 63-2 53-25 146-40 195C77 949 49 907 2 923c-16 73 68 151 99 184 110 119 53 76 190 96 49 72 43 71 109 143 43 47 64 89 138 118 67 27 140 28 205-6 27-14 116-92 125-120-8-38-51-57-69-101 127-1 245 24 360 45 208 36 496 103 680 1 113-62 157-214 149-245-17-69-99 14-28-309 48-218 81-217-55-356-134-139-12-49-117-175-62-73-98-126-179-123-9 1-34 4-41 7-49 16-34 69-58 204-5 27-11 64-24 82-11 15-42 36-61 43-49-21-65-91-116-98-73-10-81 52-115 83-51-36-54-93-154-83-125 12-122 154-198 46-26-37-12-31-17-74-4-38-13-71-33-94L682 61C652 26 612 3 563 0 303-13 257 250 207 366zm1091 303c-30 19-113 116-81 145 45 42 86-40 81-145z" id="Слой_x0020_1"/></svg>