<svg xmlns="http://www.w3.org/2000/svg" width="210mm" height="297mm" viewBox="0 0 21000 29700" shape-rendering="geometricPrecision" text-rendering="geometricPrecision" image-rendering="optimizeQuality" fill-rule="evenodd" clip-rule="evenodd"><defs><style>.fil0{fill:#bc8d4b}</style></defs><path class="fil0" d="M10415 14429c58-43 137-51 190 2l27 27c36-59 103-67 168-50l12 3 46 47c18-19 37-37 55-55 32-114 35-165 10-227 67 0 128-3 182 50 128 128 233 253 359 378 49 57 5 165-13 230-13 52-32 120-35 173l83 84c-28 93-53 173-123 245-70 73-161 108-261 118-197 17-420-68-610-115-48-12-145-37-197-15-8 5-16 10-23 17l132 131c-35 42-55 70-107 90-77 32-171 15-238-33l-13-12-190-190c-9-6-15-15-24-23-36 2-78-12-105-37l-189-190c-62-63-57-121-35-198 20 7 55 17 76 8 55-26 82-186 93-239l-126-127 6-25c14-40 49-72 92-72h77c40-150 115-303 295-303 55 0 108 20 148 60 81 80 160 172 238 248zm-386-266c-159 0-224 141-264 303h-108c-18 0-43 13-52 43h150c-48 219-63 455-209 420-19 58 20 145 108 145 181 0 198-316 233-565h95c-23 144-140 438 68 422 25-148 110-355 139-400h11c-26 130 93 127 140 33-87-6 37-191-62-191-94 0-178 243-209 326h-12c18-73 50-148 38-191-15-49-70-42-108-42h-93c23-140 55-250 135-250 85 0 35 157-35 157 36 85 198 73 198-67 0-50-50-143-163-143zm944 55c20 38 3 116-23 206-42 45-100 102-160 162-2-12-5-25-7-40-6-33-21-70 7-97-25-6-45-8-62-6-56 8-73 48-86 95-44 135-155 328-222 328-40 0-28-70-8-147 155-11 261-283 101-283-123 0-236 240-236 383 0 63 46 113 123 112 107-2 223-233 270-343 8 36 15 71 20 106-88 99-160 197-160 265 0 75 67 88 77 90 128 20 233-73 219-241-5-75-14-124-26-175 45-49 90-92 123-124-63 200-131 420 48 422 10-103 87-292 144-370h11c-45 88-158 465-10 465 29 0 59-29 74-49l10 5c-202 397-710 15-1048-15-130-10-312 25-312 209 0 165 239 231 332 111-47 19-128-15-128-93 0-85 68-108 128-108 281 0 934 408 1093-172h-2c-57 13-75-13-77-60-5-66 20-160 44-243 16-58 63-183-27-183-80 0-170 176-217 288h-8c27-103 93-230 113-335 17-90-1-163-118-163zm-361 763c-72-5-7-120 86-233 14 138-8 239-86 233zm-185-312c73-15 131-133 86-133-28 0-63 63-86 133z" id="Слой_x0020_1"/></svg>