<svg xmlns="http://www.w3.org/2000/svg" width="88.8" height="88.8" viewBox="0 0 2350 2350" shape-rendering="geometricPrecision" text-rendering="geometricPrecision" image-rendering="optimizeQuality" fill-rule="evenodd" clip-rule="evenodd"><defs><style>.fil0{fill:#2b2a29;fill-rule:nonzero}</style></defs><path class="fil0" d="M1175 0c324 0 618 131 830 344 213 213 345 506 345 831 0 324-132 618-345 830-212 213-506 345-830 345-325 0-618-132-831-345C131 1793 0 1499 0 1175c0-325 131-618 344-831S850 0 1175 0zm219 1655l-467-466-14-14 14-14 467-467 28 28-452 453 452 452-28 28zm583-1283c-205-205-489-332-802-332-314 0-597 127-803 332C167 578 40 861 40 1175c0 313 127 597 332 802 206 206 489 333 803 333 313 0 597-127 802-333 206-205 333-489 333-802 0-314-127-597-333-803z" id="Слой_x0020_1"/></svg>