<svg xmlns="http://www.w3.org/2000/svg" width="54.546" height="52.335" viewBox="0 0 1443 1385" shape-rendering="geometricPrecision" text-rendering="geometricPrecision" image-rendering="optimizeQuality" fill-rule="evenodd" clip-rule="evenodd"><defs><style>.fil0{fill:#fefefe;fill-rule:nonzero}</style></defs><path class="fil0" d="M829 945c0 115-47 218-122 293s-178 121-293 121c-114 0-218-46-293-121S0 1059 0 945s46-218 121-293 179-121 293-121c32 0 64 3 94 10 31 7 61 18 89 32l-18 36c-25-13-52-22-80-29-27-6-55-9-85-9-103 0-197 42-264 109C82 748 40 842 40 945s42 197 110 265c67 68 161 109 264 109 104 0 197-41 265-109s110-162 110-265c0-47-9-92-24-133-17-43-41-82-71-116l30-26c33 37 60 80 78 128 17 46 27 95 27 147zM647 455c-145-84-212-199-220-290-3-32 1-61 11-86 11-25 28-46 50-60 41-25 99-27 169 7 70-34 129-32 170-7 22 14 39 35 50 60 10 25 14 54 11 86-8 91-75 206-221 290l-10 6-10-6zM467 161c7 79 64 177 190 254 126-77 184-175 191-254 2-25-1-48-8-67-8-18-19-32-34-41-31-20-79-19-139 13l-10 5-9-5c-60-32-108-33-139-13-15 9-27 23-34 41-8 19-11 42-8 67zm143 1034c-28-39-50-82-66-129-14-45-22-92-22-142 0-127 52-242 135-326 83-83 198-135 326-135 127 0 242 52 325 135 84 84 135 199 135 326s-51 242-135 326c-83 83-198 135-325 135-47 0-93-7-136-21-44-13-85-33-123-59l23-33c34 24 72 42 112 54 39 12 80 19 124 19 116 0 221-47 297-123 76-77 123-182 123-298s-47-221-123-297-181-124-297-124c-117 0-222 48-298 124S562 808 562 924c0 46 7 89 20 130 14 42 34 82 60 117l-32 24z" id="Слой_x0020_1"/></svg>