<svg xmlns="http://www.w3.org/2000/svg" width="55.688" height="46.152" viewBox="0 0 1473 1221" shape-rendering="geometricPrecision" text-rendering="geometricPrecision" image-rendering="optimizeQuality" fill-rule="evenodd" clip-rule="evenodd"><defs><style>.fil0{fill:#bc8c4a;fill-rule:nonzero}</style></defs><path class="fil0" d="M20 892h47V453h55v-8c0-32 13-62 34-83s51-34 83-34 62 13 83 34c17 17 29 39 33 63h22c4-24 16-46 33-63 21-21 50-34 83-34 32 0 61 13 82 34h1c21 21 34 51 34 83v8h108v-75c-32-5-60-19-82-41-26-26-42-62-42-101 0-18 4-36 10-52 5-14 13-27 22-39v-2c0-38 12-73 31-99 20-27 49-44 81-44 31 0 60 17 80 44 19 26 31 61 31 99v2c9 12 17 25 22 39 6 16 10 34 10 52 0 39-16 75-42 101-22 22-50 36-81 41v75h101v-8c0-32 13-62 34-83s51-34 83-34 62 13 83 34c17 17 28 39 33 63h22c4-24 16-46 32-63 22-21 51-34 83-34 33 0 62 13 83 34 22 21 35 51 35 83 0 2 0 5-1 8h60v93h1l-1 5v341h67v329H0V892h20zm698-555V198h40v139c20-4 38-14 53-28 18-19 30-45 30-73 0-14-3-26-7-38-5-12-12-23-20-32l-6-6 1-8v-9c0-29-9-56-23-75-13-17-30-28-48-28-19 0-36 11-49 28-14 19-23 46-23 75v9l1 8-6 6c-8 9-15 20-20 32-4 12-7 24-7 38 0 28 12 54 30 73 15 14 33 24 54 28zm580 419v72h-40v-72h40zm-467 0v72h-40v-72h40zm-143 0v72h-40v-72h40zm-463 0v72h-40v-72h40zm493-213v-50H107v49h1c5 52 40 99 94 133 55 35 129 56 211 56s156-21 211-56c53-34 88-80 94-132zm40-50v50c5 52 40 98 93 132 55 35 130 56 211 56 82 0 156-21 211-56 51-33 85-77 93-126v-56H758zm608 151c-18 24-43 46-71 64-62 39-143 63-233 63-89 0-171-24-232-63-41-26-73-59-92-97-20 38-52 71-93 97-61 39-143 63-232 63-90 0-171-24-233-63-29-19-54-41-73-66v250h1259V644zM899 453h154v-8c0-21-8-41-22-55s-34-22-55-22-41 8-55 22-22 34-22 55v8zm253 0h154c1-3 1-5 1-8 0-21-9-41-23-55s-33-22-55-22c-21 0-40 8-54 22s-23 34-23 55v8zm-990 0h154v-8c0-21-8-41-22-55s-34-22-55-22-41 8-55 22-22 34-22 55v8zm253 0h155v-8c0-21-9-41-23-55s-33-22-54-22c-22 0-41 8-55 22s-23 34-23 55v8zm1018 624H40v104h1393v-104zm0-145H40v105h1393V932z" id="Слой_x0020_1"/></svg>