<svg xmlns="http://www.w3.org/2000/svg" width="28" height="28" viewBox="0 0 973 950" shape-rendering="geometricPrecision" text-rendering="geometricPrecision" image-rendering="optimizeQuality" fill-rule="evenodd" clip-rule="evenodd"><defs><style>.fil0{fill:#bc8c4a;fill-rule:nonzero}</style></defs><path class="fil0" d="M20 51h191V0h40v51h122V0h40v51h148V0h40v51h121V0h40v51h211v899H0V51h20zm193 292h547v40H213v-40zm0 144h547v40H213v-40zm0 144h547v40H213v-40zm547 185H213v-40h547v40zM561 165V91H413v74h-40V91H251v74h-40V91H40v819h893V91H762v74h-40V91H601v74h-40z" id="Слой_x0020_1"/></svg>