<svg xmlns="http://www.w3.org/2000/svg" width="33" height="25" viewBox="0 0 1148 903" shape-rendering="geometricPrecision" text-rendering="geometricPrecision" image-rendering="optimizeQuality" fill-rule="evenodd" clip-rule="evenodd"><defs><style>.fil0{fill:#bc8c4a;fill-rule:nonzero}</style></defs><path class="fil0" d="M1065 81c24 0 44 11 59 28 15 16 24 38 24 62v641c0 25-9 47-24 63-15 17-35 28-59 28H82c-23 0-44-11-59-28-14-16-23-38-23-63V171c0-24 9-46 23-62 15-17 36-28 59-28h299c4-20 14-37 28-51 18-19 44-30 72-30h186c28 0 53 11 72 30 14 14 23 31 27 51h299zM40 493h165v40H40v279c0 15 5 28 13 37 8 8 18 14 29 14h983c12 0 22-6 30-14 8-9 13-22 13-37V533H943v-40h165V171c0-14-5-27-13-36s-18-14-30-14H728v-20c0-17-6-32-18-43-11-11-26-18-43-18H481c-17 0-33 7-44 18s-18 26-18 43v20H82c-11 0-21 5-29 14s-13 22-13 36v322zm534-155c42 0 81 17 109 45s45 66 45 109-17 81-45 109-66 45-109 45-81-17-109-45-45-66-45-109 17-81 45-109 66-45 109-45zm81 73c-21-21-50-33-81-33-32 0-60 12-81 33s-33 49-33 81c0 31 12 60 33 81 21 20 49 33 81 33 31 0 60-13 81-33 20-21 33-50 33-81 0-32-13-60-33-81zm-81-174c70 0 134 28 180 75 46 46 75 110 75 180s-29 134-75 180-110 75-180 75-134-29-180-75c-47-46-75-110-75-180s28-134 75-180c46-47 110-75 180-75zm152 103c-39-39-93-63-152-63s-113 24-152 63-63 93-63 152 24 113 63 152 93 63 152 63 113-24 152-63 63-93 63-152-24-113-63-152z" id="Слой_x0020_1"/></svg>