<svg xmlns="http://www.w3.org/2000/svg" width="54.954" height="49.482" viewBox="0 0 1454 1309" shape-rendering="geometricPrecision" text-rendering="geometricPrecision" image-rendering="optimizeQuality" fill-rule="evenodd" clip-rule="evenodd"><defs><style>.fil0{fill:#fefefe;fill-rule:nonzero}</style></defs><path class="fil0" d="M823 1h631v480c0 89-37 171-96 230-54 54-128 90-209 95v380h137v40H971v-40h138V806c-82-5-156-41-210-95-59-59-96-141-96-230V1h20zM131 269c115-12 188 41 255 89 89 64 164 118 327-52l29-105L192 49l-61 220zm562 112c-155 136-236 77-330 9-64-45-134-96-243-80L75 473c-21 76-9 153 27 217s97 113 172 134h1c75 21 152 9 216-27s114-96 134-172l68-244zM11 1187l132 37 102-367c-78-27-139-80-178-147-41-73-54-161-31-247L159 19l5-19 19 5 589 163 19 5-5 19-122 444c-24 86-81 155-153 196-67 38-148 52-228 35l-101 367 133 37-11 38-304-84 11-38zm832-919c199 116 287 43 377-30 56-46 113-92 194-101V41H843v227zm571-91c-68 9-118 50-169 92-97 80-194 159-402 45v167c0 78 32 150 84 201 52 52 123 84 202 84 78 0 149-32 201-84 52-51 84-123 84-201V177z" id="Слой_x0020_1"/></svg>