<svg xmlns="http://www.w3.org/2000/svg" width="61.334" height="51.466" viewBox="0 0 1623 1362" shape-rendering="geometricPrecision" text-rendering="geometricPrecision" image-rendering="optimizeQuality" fill-rule="evenodd" clip-rule="evenodd"><defs><style>.fil0{fill:#fefefe;fill-rule:nonzero}</style></defs><path class="fil0" d="M40 1084h111V950h40v134h282V950h40v134h111V879c0-45-15-88-40-122-25-33-59-58-98-71-19 12-39 23-61 30-25 8-51 12-78 12-28 0-56-5-82-14-24-8-46-20-65-34-45 10-84 34-112 68-30 36-48 82-48 131v205zm287-397v-42c-38-5-72-22-97-48-30-30-49-71-49-117s19-87 49-117c25-26 59-43 97-48V40h-74V0h1370v40h-74v890h-511l208 414-35 18-218-432H883l-218 432-35-18 208-414H664v194H0V879c0-59 21-113 57-156s87-74 144-84l9-2 7 6c18 14 39 26 61 34 16 5 32 9 49 10zm337 203h845V40H367v275c38 5 72 22 98 48 30 30 48 71 48 117s-18 87-48 117c-26 26-60 43-98 48v42c16-1 31-4 45-9 22-7 41-17 59-30l8-6 9 2c52 16 96 47 127 89 31 41 49 92 49 146v11zm499-459V312l-158 146 80 86 14 14-15 14-252 235-27-29 237-222-80-86-14-15 15-13 169-155h-113v-40h184v184h-40zm-727-40c-22-23-54-37-89-37s-66 14-89 37-37 54-37 89 14 66 37 89 54 37 89 37 67-14 89-37c23-23 37-54 37-89s-14-66-37-89z" id="Слой_x0020_1"/></svg>