<svg xmlns="http://www.w3.org/2000/svg" width="35.134" height="43.669" viewBox="0 0 930 1155" shape-rendering="geometricPrecision" text-rendering="geometricPrecision" image-rendering="optimizeQuality" fill-rule="evenodd" clip-rule="evenodd"><defs><style>.fil0{fill:#bc8c4a;fill-rule:nonzero}</style></defs><path class="fil0" d="M141 382V217c-32-12-66-22-101-30v54c0 117 48 223 125 300 9 9 20 19 30 27-34-49-54-111-54-186zm456 484l-66-165c-6 1-12 1-18 2-4 5-7 11-10 16-26 51-22 106 0 156 22 52 62 99 105 132 10 8 21 16 31 22 39-53 64-109 66-167 2-60-19-123-72-188-20 8-41 14-62 19l63 158-37 15zm-303-15l63-158c-21-5-42-12-62-20-53 66-74 129-72 189 2 58 27 114 66 167 10-6 21-14 31-22 43-33 83-80 105-132 22-50 26-105 0-156-3-5-7-11-10-16-6-1-12-2-18-2l-66 165-37-15zm490-273c8 4 15 10 22 15 44 35 68 78 74 123s-6 93-31 141c-11 21-25 42-41 62l-11 13-14-7c-12-7-24-14-36-22l-6-4c-10 59-39 115-81 168l-10 13-15-8c-17-9-35-20-52-33-37-29-73-68-98-111v227h-40V925c-26 44-62 84-100 114-17 13-35 24-52 33l-15 8-10-13c-42-53-71-109-81-168l-6 4c-12 8-24 15-36 22l-14 7-11-13c-16-20-30-41-41-62-26-48-37-96-31-141s29-88 74-123c7-6 14-11 23-16-3-3-6-5-8-8C52 485 0 369 0 241V140l23 4c41 6 80 17 118 30V94l26 8c56 18 104 44 145 76 14-34 32-66 53-93 27-34 58-62 93-80l9-5 10 5c34 18 65 45 92 79 21 26 39 57 53 91 40-30 86-56 141-73l26-8v80c37-13 76-24 117-30l24-4v101c0 128-53 244-137 328l-9 9zm-39 273c8 7 16 13 24 19 6 4 12 8 18 11 10-14 19-29 27-43 21-40 31-80 26-116-4-36-23-69-59-98-9-7-18-13-28-19-26 20-53 38-82 52 51 67 73 131 74 194zM176 604c-11 7-20 13-29 20-36 29-55 62-60 98-4 36 5 76 27 116 7 14 17 29 27 43 6-3 12-7 17-11 9-6 17-12 25-19 0-63 23-128 74-195-29-14-56-32-81-52zm309-193v250c33-2 66-9 97-21 93-38 167-124 167-258V234c-23 10-45 21-67 34-69 39-134 89-197 143zm-40 250V411c-63-54-128-104-197-143-22-13-44-24-67-34v148c0 134 73 220 167 258 31 12 63 19 97 21zm-49-552c-21 28-39 61-52 97 4 5 9 9 13 14 36 36 66 77 93 120l1 2 1 1v1l1 1 1 1v1h1v2h1v1l1 1v1h1v1l1 1 1 2v1l1 1 1 1 1 1v2l1 1 1 1 1-1 1-3 1-1 1-2 1-2 1-1 1-1v-1l1-2 1-1 2-3 1-1v-1c7-11 14-22 21-32l1-1c3-6 7-11 11-16v-1l2-2 1-1 2-4 1-1h1l1-2 1-1v-1h1l1-2 1-1 2-3 1-1v-1l1-1 1-1 1-1v-1l1-1 1-1 1-2h1l1-1v-1l1-1 1-1 1-1 1-1v-1l1-1 1-1 1-2 2-1v-1h1l1-2 1-1 1-1v-1l1-1h1v-1l1-1 1-1 1-1 1-1 1-1v-1l1-1 1-1 2-1v-1l1-1 1-1 1-1 1-1v-1l1-1h1l1-1v-1h1l1-2 1-1 1-1h1l1-2 1-1 1-1 1-1 2-1v-1l1-1 1-1 1-1 2-2 1-1 1-1 1-1 1-1h1l5-5c-14-36-32-68-53-95-20-26-44-47-70-63-26 16-50 38-71 64zm69 255zm324-147v165c0 75-21 137-54 186l30-27c77-77 125-183 125-300v-54c-35 8-69 18-101 30zm-608-27c30 13 58 27 86 43 39 22 76 47 112 73-16-20-32-40-50-58-40-41-88-76-148-98v40zm370 116c36-26 73-51 111-73 28-16 57-30 87-43v-40c-48 18-88 43-123 74l-1 1h-1v1l-2 1-1 1-1 1v1l-2 1-1 1-1 1h-1l-2 3h-1l-1 1-1 1-1 2h-1v1l-2 1-1 2h-1v1l-1 1h-1l-1 1v1l-1 1-1 1h-1l-1 1-1 1v1l-1 1-1 1-2 1v1l-1 1-1 1-1 1-1 1v1h-1v1h-1v1h-1v1h-1v1l-1 1-1 1-1 1-1 1v1l-1 1-1 1h-1l-1 1v1l-1 1-1 1-1 1v1l-1 1-1 1-1 1v1h-1v1h-1l-1 1v1h-1v1l-1 1v1h-1l-1 1v1l-1 1-1 1-1 2-1 1-1 2-1 1-1 1-1 2h-1l-2 2v1l-1 1z" id="Слой_x0020_1"/></svg>