<svg xmlns="http://www.w3.org/2000/svg" width="62.95mm" height="79.84" viewBox="0 0 6235 2092" shape-rendering="geometricPrecision" text-rendering="geometricPrecision" image-rendering="optimizeQuality" fill-rule="evenodd" clip-rule="evenodd"><defs><style>.fil0{fill:#ad7a32;fill-rule:nonzero}</style></defs><g id="Слой_x0020_1"><g id="_288980792"><path class="fil0" d="M917 1062c-2 4-7 6-14 9-20-3-109-3-266-3H244c-87 0-148 5-239 7-2-7-5-16-5-32 0-11 3-20 15-23l76-14c64-11 69-51 69-232V334c0-179-5-220-69-232L15 89C3 86 0 77 0 66c0-15 3-25 5-31 91 2 165 6 252 6 86 0 171-4 262-6 3 6 5 16 5 31 0 11-2 20-15 23l-76 13c-64 12-69 53-69 232v491c0 141 25 175 101 175h167c157 0 210-27 244-105l31-72c5-12 18-14 30-12 18 2 30 7 38 12-18 61-45 181-58 239zM2425 89l-69 13c-64 12-76 57-76 248v382c0 248-150 377-413 377-288 0-468-105-468-368V334c0-179-5-220-68-232l-76-13c-13-3-15-12-15-23 0-15 2-25 5-31 91 2 164 6 251 6 86 0 172-4 263-6 2 6 5 16 5 31 0 11-3 20-15 23l-76 13c-65 12-70 53-70 232v396c0 179 95 297 291 297 182 0 275-100 275-295V384c0-228-12-266-83-279l-89-16c-12-3-14-12-14-23 0-15 2-25 5-31 91 2 144 6 231 6 86 0 125-4 216-6 2 6 4 16 4 31 0 11-2 20-14 23zM3739 1032c-3 4-5 11-10 14-101 38-232 63-367 63-349 0-646-209-646-556 0-362 295-553 637-553 117 0 255 18 366 59 5 2 10 9 12 14 3 55 15 168 22 227-7 2-19 5-37 7-12 0-22 0-25-12-46-172-209-227-324-227-273 0-426 185-426 443 0 302 180 530 468 530 167 0 255-102 300-250 2-12 12-14 25-12 17 2 29 7 36 9-9 60-27 193-31 244zM4714 1075c-91-2-164-7-250-7s-173 5-264 7c-2-7-4-16-4-32 0-11 2-20 14-23l76-13c65-12 70-52 70-233V334c0-179-5-220-70-232l-76-13c-12-3-14-12-14-23 0-15 2-25 4-31 91 2 166 6 252 6s171-4 262-6c3 6 5 16 5 31 0 11-2 20-15 23l-75 13c-64 12-69 53-69 232v440c0 181 5 221 69 233l75 13c13 3 15 12 15 23 0 16-2 25-5 32zM6230 1075c-91-2-141-7-227-7-85 0-150 5-241 7-2-7-5-16-5-32 0-11 3-20 15-23l55-9c34-7 46-18 46-38 0-23-30-87-46-130l-52-123c-3-4-3-6-10-9h-384c-7 3-10 5-12 9l-47 126c-27 70-44 151 32 165l55 9c11 3 14 12 14 23 0 16-3 25-5 32-91-2-125-7-187-7-69 0-86 5-177 7-2-7-5-16-5-32 0-11 3-20 15-23l40-9c43-11 73-40 122-163l259-662c7-18 12-38 12-52 0-4 0-13-2-18 9-25 38-25 93-60 46-28 58-49 83-49 8 0 15 2 20 7 15 52 36 107 84 216l270 616c54 123 77 154 123 163l52 11c12 3 15 12 15 23 0 16-3 25-5 32zm-667-866h-2l-155 416c3 5 5 7 10 9h310c4-2 6-4 9-9l-172-416zM4717 1972h-189v-32h63v-147h-229v147h62v32h-189v-32h63v-325h-63v-30h189v30h-62v144h229v-144h-63v-30h189v30h-62v325h62zM5284 1972h-141v-32h37l-38-91h-152l-40 91h48v32h-117v-32h31l161-368h22l154 368h35v32zm-155-156l-61-147-63 147h124zM5743 1972h-297v-32h64v-322h-64v-33h189v33h-62v320h141v-51h29zM6207 1972h-298v-32h63v-322h-63v-33h190v33h-63v320h140v-51h31zM6 1972v-31h62v-325H6v-30h204c71 0 117 37 117 96 0 50-45 86-106 86 80 3 127 40 127 103 0 64-47 101-126 101H6zm126-217h54c42 0 69-28 69-70 0-43-22-66-63-66h-60v136zm0 184h60c55 0 83-25 83-72 0-53-27-79-83-79h-60v151zM897 1972H757v-31h36l-37-91H603l-40 91h48v31H493v-31h32l161-368h22l154 368h35v31zm-155-155l-61-147-64 147h125zM1437 1979h-25l-243-284v246h64v31h-168v-31h62v-300l-17-22h-58v-33h108l235 272v-239h-64v-33h168v33h-62zM2070 2059s-16 12-33 22c-26 15-78 18-116-8-13-9-57-75-93-91-58-14-82-26-117-66-34-38-54-88-54-137 0-110 91-203 199-203 106 0 198 94 198 203 0 90-69 180-149 196 39 45 70 77 97 77 10 0 28-4 47-21l21 28zm-341-281c0 95 56 170 126 170 71 0 128-74 128-169 0-94-58-169-128-169s-126 75-126 168zM2647 1619h-62v212c0 90-65 152-161 152-90 0-155-58-155-136v-228h-63v-33h190v33h-65v210c0 69 42 116 102 116 64 0 109-48 109-117v-209h-63v-33h168v33zM3127 1972h-300v-31h63v-325h-63v-30h263v-17h31v94h-30v-44h-138v140h107v-41l32-1v117h-32v-41h-107v146h143v-44h31zM3569 1972h-206v-31h72v-322h-122v47h-31v-97h31v17h308v-17h31v97h-31v-47h-122v322h70z"/></g></g></svg>