<svg xmlns="http://www.w3.org/2000/svg" width="53.405" height="38.812" viewBox="0 0 1413 1027" shape-rendering="geometricPrecision" text-rendering="geometricPrecision" image-rendering="optimizeQuality" fill-rule="evenodd" clip-rule="evenodd"><defs><style>.fil0{fill:#bc8c4a;fill-rule:nonzero}</style></defs><path class="fil0" d="M1026 128h290c27 0 51 10 68 28 18 18 29 42 29 69v705c0 26-11 51-29 68-17 18-42 29-68 29H97c-26 0-51-11-68-29-18-17-29-42-29-68V225c0-27 11-51 29-69 17-18 41-28 68-28h290c5-33 20-62 42-85 27-26 64-43 105-43h345c41 0 78 17 105 43 22 23 37 52 42 85zM193 25h122v49H193V25zm918 228c32 0 59 27 59 59s-27 59-59 59-59-27-59-59 27-59 59-59zm-404 44c77 0 147 31 198 82 50 51 82 121 82 198 0 78-32 148-82 198-51 51-121 82-198 82-78 0-148-31-199-82-50-50-82-120-82-198 0-77 32-147 82-198 51-51 121-82 199-82zm169 110c-43-43-103-70-169-70-67 0-127 27-170 70-44 44-71 104-71 170 0 67 27 127 71 170 43 44 103 70 170 70 66 0 126-26 169-70 44-43 71-103 71-170 0-66-27-126-71-170zm440-239H987v-20c0-30-12-57-32-76-19-20-46-32-76-32H534c-30 0-57 12-76 32-20 19-32 46-32 76v20H97c-15 0-30 6-40 16-11 11-17 25-17 41v705c0 15 6 30 17 40 10 10 24 17 40 17h1219c16 0 30-7 40-17 11-10 17-25 17-40V225c0-16-6-30-17-41-10-10-25-16-40-16z" id="Слой_x0020_1"/></svg>