<svg xmlns="http://www.w3.org/2000/svg" width="63.681" height="42.421" viewBox="0 0 1685 1122" shape-rendering="geometricPrecision" text-rendering="geometricPrecision" image-rendering="optimizeQuality" fill-rule="evenodd" clip-rule="evenodd"><defs><style>.fil0{fill:#fefefe;fill-rule:nonzero}</style></defs><path class="fil0" d="M1382 442c91 34 166 77 218 127 55 50 85 108 85 169 0 109-97 207-253 276-151 67-360 108-590 108-229 0-438-41-589-108C97 945 0 847 0 738c0-60 29-117 82-167 51-49 124-92 213-126 6-19 11-37 17-54 35-109 74-204 119-272C527-26 609-16 680 31c26 17 50 40 72 61l6 6c36 34 60 51 82 50 21 0 45-17 81-51l5-5c22-21 46-43 72-61 71-47 153-57 249 88 46 68 84 163 119 272 6 16 11 34 16 51zm22 232c-42 25-111 47-197 63-102 18-230 29-368 29s-266-11-368-29c-86-16-154-38-197-63-6 26-13 52-19 78 3 27 64 54 160 76 108 24 259 39 424 39s316-15 425-39c96-22 157-49 159-76-6-26-13-52-19-78zM285 633c34 26 103 48 194 64 99 19 224 29 360 29s261-10 361-29c90-16 159-38 194-64-21-81-43-159-66-230-34-106-71-197-114-262-78-117-141-112-194-77-23 16-46 37-67 57l-4 5c-44 41-75 62-109 62s-65-20-109-61l-6-6c-21-20-44-41-67-57-53-35-116-40-194 77-43 65-80 156-114 262-23 71-44 149-65 230zm-4-139c-71 30-130 66-171 105-45 43-70 90-70 139 0 92 88 177 229 239 146 65 349 105 573 105 225 0 428-40 574-105 141-62 229-147 229-239 0-49-26-97-72-140-43-41-103-77-177-108 23 81 45 168 67 255v5c0 49-73 90-191 117-111 25-265 40-433 40-167 0-321-15-433-40-118-27-191-68-191-117v-2l1-3c21-86 42-171 65-251z" id="Слой_x0020_1"/></svg>